<?xml version="1.0" encoding="UTF-8"?>
<svg id="Layer_2" data-name="Layer 2" xmlns="http://www.w3.org/2000/svg" xmlns:xlink="http://www.w3.org/1999/xlink" viewBox="0 0 430.14 393">
  <defs>
    <style>
      .cls-1 {
        fill: url(#linear-gradient-2);
      }

      .cls-2, .cls-3 {
        fill: none;
      }

      .cls-3 {
        stroke: #0a1b1d;
        stroke-miterlimit: 10;
        stroke-width: 47px;
      }

      .cls-4 {
        fill: url(#linear-gradient);
      }

      .cls-5 {
        fill: #0a1b1d;
      }

      .cls-6 {
        clip-path: url(#clippath);
      }
    </style>
    <linearGradient id="linear-gradient" x1="199.07" y1="9.5" x2="243.23" y2="9.5" gradientUnits="userSpaceOnUse">
      <stop offset="0" stop-color="#ef3924"/>
      <stop offset=".83" stop-color="#f36d21"/>
    </linearGradient>
    <linearGradient id="linear-gradient-2" x1="255.96" y1="148.93" x2="400.22" y2="76.07" xlink:href="#linear-gradient"/>
    <clipPath id="clippath">
      <polygon class="cls-2" points="430.14 393 17.18 393 17.92 226 401.4 226.12 430.14 393"/>
    </clipPath>
  </defs>
  <g id="Layer_1-2" data-name="Layer 1">
    <g>
      <path class="cls-4" d="M200.22,19l42.63-.15S246.35-.04,232.26,0l-23.01.05c-2.91,0-5.73,1.24-7.55,3.51-2.21,2.76-3.84,7.5-1.48,15.44Z"/>
      <path class="cls-5" d="M201.18,33l-7,57h0S29.66,9.94,29.66,9.94h0s-4.06-1.7-4.06-1.7h0C16.15,13.36,7.11,23.48,3.56,33.62c-.85,2.44-2.51,7.38-2.51,7.38h0c-4.29,20.74,5.59,29.91,12.38,33.66,3.24,1.79,7.03,2.32,10.66,1.61,8.4-1.65,13.89-4.96,17.47-8.5,4.89-4.84,6.54-11.99,4.87-18.66-1.93-7.7-.24-13.11-.24-13.11,0,0,0,0,0,0l95.57,64s0,0,0,0h75.42s0-.21,0-.21V32h.41s-16,1-16,1c0,0-.41,0-.41,0ZM25.68,19.67s11.41,8.33,11.5,16.04c0,0,0,0,0,0,0,0-7.71,5.81-4.15,12.67h0s4.4,11.3-10.28,14.12h0s-6.69.43-8.26-6.99c-.26-1.24-.41-2.53-.31-3.8v-2.92s0,0,0,0l8.99-2.01s0,0,0,0c0,0-6.75-4.26-8.47-10.92-.76-2.93-.27-5.42,2.28-8.06"/>
      <path class="cls-5" d="M217.18,111v89h-74.76s8.5-44.58-28.45-61.39c-14.6-6.64-31.48-6.42-46.08.24-16.87,7.69-36.19,24.76-29.13,62.16h-21.57v-23.53c0-19.24,7.2-37.78,20.17-51.98l.07-.07c8.4-9.19,20.27-14.42,32.72-14.42h147.04Z"/>
      <path class="cls-5" d="M90.05,151.71c-19.05,0-34.5,15.45-34.5,34.5s15.45,34.5,34.5,34.5,34.5-15.45,34.5-34.5-15.45-34.5-34.5-34.5ZM89.36,197.57c-6.77,0-12.26-5.49-12.26-12.26s5.49-12.26,12.26-12.26,12.26,5.49,12.26,12.26-5.49,12.26-12.26,12.26Z"/>
      <path class="cls-5" d="M304.72,151.69c-19.05,0-34.5,15.45-34.5,34.5s15.45,34.5,34.5,34.5,34.5-15.45,34.5-34.5-15.45-34.5-34.5-34.5ZM304.03,197.54c-6.77,0-12.26-5.49-12.26-12.26s5.49-12.26,12.26-12.26,12.26,5.49,12.26,12.26-5.49,12.26-12.26,12.26Z"/>
      <path class="cls-1" d="M375.44,146.01s2.14-20.1,24.73-8c0,0,7.46-50.24-29.84-83.31-16.04-14.22-36.95-21.7-58.39-21.7h-72.76v166h13.41c0,.79-11.45-45.43,36.63-61.45,14.22-4.74,29.84-3.95,43.06,3.12,14.5,7.76,26.31,59.33,26.31,59.33h42.59v-40.99s-25.05,8.27-25.73-13ZM276.18,100l-.07-40.01c75.62-13.12,96.28,40.01,96.28,40.01h-96.21Z"/>
      <g class="cls-6">
        <circle class="cls-3" cx="210.18" cy="199" r="165.5"/>
      </g>
    </g>
  </g>
</svg>