<?xml version="1.0" encoding="UTF-8"?>
<svg width="228" height="33" id="Layer_2" data-name="Layer 2" xmlns="http://www.w3.org/2000/svg" xmlns:xlink="http://www.w3.org/1999/xlink" viewBox="0 0 3183.29 393">
  <defs>
    <style>
      .cls-1 {
        fill: url(#linear-gradient-2);
      }

      .cls-2 {
        fill: url(#linear-gradient-10);
      }

      .cls-3, .cls-4 {
        fill: none;
      }

      .cls-5 {
        fill: url(#linear-gradient-4);
      }

      .cls-6 {
        fill: url(#linear-gradient-3);
      }

      .cls-7 {
        fill: url(#linear-gradient-5);
      }

      .cls-8 {
        fill: url(#linear-gradient-8);
      }

      .cls-9 {
        fill: url(#linear-gradient-7);
      }

      .cls-10 {
        fill: url(#linear-gradient-9);
      }

      .cls-11 {
        fill: url(#linear-gradient-11);
      }

      .cls-12 {
        fill: url(#linear-gradient-6);
      }

      .cls-4 {
        stroke: #0a1b1d;
        stroke-miterlimit: 10;
        stroke-width: 47px;
      }

      .cls-13 {
        fill: url(#linear-gradient);
      }

      .cls-14 {
        fill: #0a1b1d;
      }

      .cls-15 {
        clip-path: url(#clippath);
      }
    </style>
    <linearGradient id="linear-gradient" x1="199.07" y1="9.5" x2="243.23" y2="9.5" gradientUnits="userSpaceOnUse">
      <stop offset="0" stop-color="#ef3924"/>
      <stop offset=".83" stop-color="#f36d21"/>
    </linearGradient>
    <linearGradient id="linear-gradient-2" x1="255.96" y1="148.93" x2="400.22" y2="76.07" xlink:href="#linear-gradient"/>
    <clipPath id="clippath">
      <polygon class="cls-3" points="430.14 393 17.18 393 17.92 226 401.4 226.12 430.14 393"/>
    </clipPath>
    <linearGradient id="linear-gradient-3" x1="456.52" y1="200.77" x2="742.92" y2="200.77" gradientUnits="userSpaceOnUse">
      <stop offset="0" stop-color="#ef3924"/>
      <stop offset=".83" stop-color="#f36d21"/>
    </linearGradient>
    <linearGradient id="linear-gradient-4" x1="759.31" y1="201.23" x2="1030.51" y2="201.23" xlink:href="#linear-gradient-3"/>
    <linearGradient id="linear-gradient-5" x1="1066.53" y1="203.23" x2="1345.71" y2="203.23" xlink:href="#linear-gradient-3"/>
    <linearGradient id="linear-gradient-6" x1="1314.25" y1="200.73" x2="1616.36" y2="200.73" xlink:href="#linear-gradient-3"/>
    <linearGradient id="linear-gradient-7" x1="1636.1" x2="1890.9" xlink:href="#linear-gradient-3"/>
    <linearGradient id="linear-gradient-8" x1="2029.72" y1="203.23" x2="2308.9" y2="203.23" xlink:href="#linear-gradient-3"/>
    <linearGradient id="linear-gradient-9" x1="2328.5" x2="2607.3" xlink:href="#linear-gradient-3"/>
    <linearGradient id="linear-gradient-10" x1="2568.23" y1="200.73" x2="2870.35" y2="200.73" xlink:href="#linear-gradient-3"/>
    <linearGradient id="linear-gradient-11" x1="2906.89" y1="201.23" x2="3183.29" y2="201.23" xlink:href="#linear-gradient-3"/>
  </defs>
  <g id="Layer_1-2" data-name="Layer 1">
    <g>
      <path class="cls-13" d="M200.22,19l42.63-.15S246.35-.04,232.26,0l-23.01.05c-2.91,0-5.73,1.24-7.55,3.51-2.21,2.76-3.84,7.5-1.48,15.44Z"/>
      <path class="cls-14" d="M201.18,33l-7,57h0S29.66,9.94,29.66,9.94h0s-4.06-1.7-4.06-1.7h0C16.15,13.36,7.11,23.48,3.56,33.62c-.85,2.44-2.51,7.38-2.51,7.38h0c-4.29,20.74,5.59,29.91,12.38,33.66,3.24,1.79,7.03,2.32,10.66,1.61,8.4-1.65,13.89-4.96,17.47-8.5,4.89-4.84,6.54-11.99,4.87-18.66-1.93-7.7-.24-13.11-.24-13.11,0,0,0,0,0,0l95.57,64s0,0,0,0h75.42s0-.21,0-.21V32h.41s-16,1-16,1c0,0-.41,0-.41,0ZM25.68,19.67s11.41,8.33,11.5,16.04c0,0,0,0,0,0,0,0-7.71,5.81-4.15,12.67h0s4.4,11.3-10.28,14.12h0s-6.69.43-8.26-6.99c-.26-1.24-.41-2.53-.31-3.8v-2.92s0,0,0,0l8.99-2.01s0,0,0,0c0,0-6.75-4.26-8.47-10.92-.76-2.93-.27-5.42,2.28-8.06"/>
      <path class="cls-14" d="M217.18,111v89h-74.76s8.5-44.58-28.45-61.39c-14.6-6.64-31.48-6.42-46.08.24-16.87,7.69-36.19,24.76-29.13,62.16h-21.57v-23.53c0-19.24,7.2-37.78,20.17-51.98l.07-.07c8.4-9.19,20.27-14.42,32.72-14.42h147.04Z"/>
      <path class="cls-14" d="M90.05,151.71c-19.05,0-34.5,15.45-34.5,34.5s15.45,34.5,34.5,34.5,34.5-15.45,34.5-34.5-15.45-34.5-34.5-34.5ZM89.36,197.57c-6.77,0-12.26-5.49-12.26-12.26s5.49-12.26,12.26-12.26,12.26,5.49,12.26,12.26-5.49,12.26-12.26,12.26Z"/>
      <path class="cls-14" d="M304.72,151.69c-19.05,0-34.5,15.45-34.5,34.5s15.45,34.5,34.5,34.5,34.5-15.45,34.5-34.5-15.45-34.5-34.5-34.5ZM304.03,197.54c-6.77,0-12.26-5.49-12.26-12.26s5.49-12.26,12.26-12.26,12.26,5.49,12.26,12.26-5.49,12.26-12.26,12.26Z"/>
      <path class="cls-1" d="M375.44,146.01s2.14-20.1,24.73-8c0,0,7.46-50.24-29.84-83.31-16.04-14.22-36.95-21.7-58.39-21.7h-72.76v166h13.41c0,.79-11.45-45.43,36.63-61.45,14.22-4.74,29.84-3.95,43.06,3.12,14.5,7.76,26.31,59.33,26.31,59.33h42.59v-40.99s-25.05,8.27-25.73-13ZM276.18,100l-.07-40.01c75.62-13.12,96.28,40.01,96.28,40.01h-96.21Z"/>
      <g class="cls-15">
        <circle class="cls-4" cx="210.18" cy="199" r="165.5"/>
      </g>
    </g>
    <g>
      <path class="cls-6" d="M592.52,344.77c-28,0-52.14-5.06-72.4-15.2-20.27-10.13-35.94-24.2-47-42.2-11.07-18-16.6-38.73-16.6-62.2s4.06-45.8,12.2-66.2c8.13-20.4,19.8-38.2,35-53.4,15.2-15.2,33.53-27.13,55-35.8,21.46-8.66,45.4-13,71.8-13s47.86,4,66.8,12c18.93,8,34.13,19.34,45.6,34l-37.6,31.2c-9.34-11.2-20.34-19.26-33-24.2-12.67-4.93-27.4-7.4-44.2-7.4-18.14,0-34.54,3-49.2,9-14.67,6-27.2,14.47-37.6,25.4-10.4,10.94-18.4,23.67-24,38.2-5.6,14.54-8.4,30.2-8.4,47,0,15.2,3.33,28.67,10,40.4,6.66,11.74,16.66,20.8,30,27.2,13.33,6.4,29.86,9.6,49.6,9.6,14.66,0,28.46-2.46,41.4-7.4,12.93-4.93,25.13-12.33,36.6-22.2l20.4,40.8c-13.87,10.94-29.94,19.4-48.2,25.4-18.27,6-37,9-56.2,9ZM649.72,302.03l20.8-104.8h49.2l-22.8,112.8-47.2-8Z"/>
      <path class="cls-5" d="M759.31,341.23l56-280h108.8c33.86,0,60.06,7.4,78.6,22.2,18.53,14.8,27.8,35.54,27.8,62.2,0,23.47-5.4,43.67-16.2,60.6-10.8,16.94-26.2,30-46.2,39.2-20,9.2-43.74,13.8-71.2,13.8h-91.2l26.8-23.6-20.8,105.6h-52.4ZM831.43,241.38l-17.57-25.16h84.65c25.29,0,44.85-5.59,58.69-16.77,13.84-11.18,20.76-27.55,20.76-49.11,0-15.17-5.13-26.48-15.37-33.94-10.25-7.45-24.95-11.18-44.12-11.18h-81.45l27.15-25.95-32.74,162.11ZM943.32,341.23l-57.43-102h55.42l57.42,102h-55.42Z"/>
      <path class="cls-7" d="M1175.71,345.23c-26.67,0-48.74-5.2-66.2-15.6-17.47-10.4-29.74-25-36.8-43.8-7.07-18.8-8.07-41-3-66.6l31.6-158h52l-31.6,157.2c-5.34,27.2-2.74,47.54,7.8,61,10.53,13.47,27.66,20.2,51.4,20.2,22.13,0,40-6.46,53.6-19.4,13.6-12.93,23.2-33.66,28.8-62.2l31.6-156.8h50.8l-31.6,160.4c-8.27,41.07-24,71.94-47.2,92.6-23.2,20.67-53.6,31-91.2,31Z"/>
      <path class="cls-12" d="M1314.25,340.23l181.35-279h51.42l69.35,279h-51.14l-58.35-253h20.78l-158.27,253h-55.14ZM1384.47,276.23l22.11-41h151.54l6.83,41h-180.48Z"/>
      <path class="cls-9" d="M1744.5,344.77c-14.67,0-28.87-1.47-42.6-4.4-13.74-2.93-26.27-6.86-37.6-11.8-11.34-4.93-20.74-10.46-28.2-16.6l22-40.8c7.73,6.4,16.53,11.87,26.4,16.4,9.86,4.54,20.33,8,31.4,10.4,11.06,2.4,22.2,3.6,33.4,3.6,13.6,0,25.46-1.6,35.6-4.8,10.13-3.2,17.93-7.73,23.4-13.6,5.46-5.86,8.2-12.93,8.2-21.2,0-7.46-2.54-13.53-7.6-18.2-5.07-4.66-11.8-8.53-20.2-11.6-8.4-3.06-17.6-6-27.6-8.8-10-2.8-20.07-6-30.2-9.6-10.14-3.6-19.34-8.13-27.6-13.6-8.27-5.46-15-12.46-20.2-21-5.2-8.53-7.8-19.2-7.8-32,0-18.4,5.13-34.33,15.4-47.8,10.26-13.46,24.53-23.93,42.8-31.4,18.26-7.46,39.53-11.2,63.8-11.2,18.13,0,35.33,2,51.6,6,16.26,4,30.26,9.87,42,17.6l-20.4,41.2c-10.4-6.93-22.14-12.26-35.2-16-13.07-3.73-26.67-5.6-40.8-5.6s-25.87,1.74-36,5.2c-10.14,3.47-17.87,8.27-23.2,14.4-5.34,6.14-8.14,13.34-8.4,21.6,0,7.74,2.53,13.94,7.6,18.6,5.06,4.67,11.73,8.6,20,11.8,8.26,3.2,17.46,6.2,27.6,9,10.13,2.8,20.2,5.94,30.2,9.4,10,3.47,19.26,7.87,27.8,13.2,8.53,5.34,15.33,12.07,20.4,20.2,5.06,8.14,7.6,18.34,7.6,30.6,0,18.4-5.14,34.4-15.4,48-10.27,13.6-24.67,24.14-43.2,31.6-18.54,7.46-40.2,11.2-65,11.2Z"/>
      <path class="cls-8" d="M2138.9,345.23c-26.67,0-48.74-5.2-66.2-15.6-17.47-10.4-29.74-25-36.8-43.8-7.07-18.8-8.07-41-3-66.6l31.6-158h52l-31.6,157.2c-5.34,27.2-2.74,47.54,7.8,61,10.53,13.47,27.66,20.2,51.4,20.2,22.13,0,40-6.46,53.6-19.4,13.6-12.93,23.2-33.66,28.8-62.2l31.6-156.8h50.8l-31.6,160.4c-8.27,41.07-24,71.94-47.2,92.6-23.2,20.67-53.6,31-91.2,31Z"/>
      <path class="cls-10" d="M2464.5,344.77c-28.54,0-52.94-5.06-73.2-15.2-20.27-10.13-35.8-24.2-46.6-42.2-10.8-18-16.2-38.73-16.2-62.2s4.06-45.8,12.2-66.2c8.13-20.4,19.8-38.2,35-53.4,15.2-15.2,33.33-27.13,54.4-35.8,21.06-8.66,44.66-13,70.8-13,24.26,0,45.6,4,64,12,18.4,8,32.53,19.6,42.4,34.8l-37.6,31.6c-7.74-10.66-17.6-18.8-29.6-24.4s-26.27-8.4-42.8-8.4c-17.87,0-34,3.07-48.4,9.2-14.4,6.14-26.67,14.74-36.8,25.8-10.14,11.07-17.87,23.87-23.2,38.4-5.34,14.54-8,29.94-8,46.2,0,15.2,3.33,28.67,10,40.4,6.66,11.74,16.53,20.8,29.6,27.2,13.06,6.4,29.06,9.6,48,9.6,15.73,0,30.33-2.66,43.8-8,13.46-5.33,25.4-13.46,35.8-24.4l30.4,32.8c-13.6,15.47-30.2,26.87-49.8,34.2-19.6,7.33-41,11-64.2,11Z"/>
      <path class="cls-2" d="M2568.23,340.23l181.35-279h51.42l69.35,279h-51.14l-58.35-253h20.78l-158.27,253h-55.14ZM2638.45,276.23l22.11-41h151.54l6.83,41h-180.48Z"/>
      <path class="cls-11" d="M2906.89,341.23l56-280h129.2c29.33,0,51.86,5.34,67.6,16,15.73,10.67,23.6,26.27,23.6,46.8,0,17.6-4.47,32.4-13.4,44.4-8.94,12-20.4,21.07-34.4,27.2-14,6.14-29,9.2-45,9.2l10-13.6c21.06,0,38.13,5.27,51.2,15.8,13.06,10.54,19.6,25.94,19.6,46.2s-5.27,35.74-15.8,48.8c-10.54,13.07-25.07,22.87-43.6,29.4-18.54,6.54-40.07,9.8-64.6,9.8h-140.4ZM2966.83,300.23h83.98c21.65,0,38.49-4.01,50.52-12.03,12.03-8.02,18.04-19.78,18.04-35.29,0-12.56-4.41-21.32-13.23-26.27-8.82-4.94-21.25-7.42-37.29-7.42h-93.22l8.12-41h81.22c12.77,0,24-1.66,33.71-4.99,9.71-3.32,17.16-8.51,22.34-15.56,5.19-7.04,7.78-15.62,7.78-25.73,0-10.63-4.19-18.41-12.57-23.34-8.38-4.92-20.28-7.38-35.71-7.38h-73.98l-39.72,199Z"/>
    </g>
  </g>
</svg>